<svg xmlns="http://www.w3.org/2000/svg" viewBox="0 0 512 512" role="img" aria-label="JIYUN portfolio mark">
  <rect width="512" height="512" fill="#fbfbf8"/>
  <g fill="#292a27">
    <path d="M239 82c0-17 34-17 34 0v103c0 17-34 17-34 0z"/>
    <path d="M430 239c17 0 17 34 0 34H327c-17 0-17-34 0-34z"/>
    <path d="M273 430c0 17-34 17-34 0V327c0-17 34-17 34 0z"/>
    <path d="M82 273c-17 0-17-34 0-34h103c17 0 17 34 0 34z"/>
  </g>
  <rect x="221" y="221" width="70" height="70" rx="8" fill="#b9d9ee"/>
  <rect x="239" y="239" width="34" height="34" rx="3" fill="#292a27"/>
</svg>
